<svg width="32" height="32" viewBox="0 0 32 32" xmlns="http://www.w3.org/2000/svg">
  <defs>
    <linearGradient id="bg" x1="0%" y1="0%" x2="100%" y2="100%">
      <stop offset="0%" stop-color="#667eea"/>
      <stop offset="100%" stop-color="#764ba2"/>
    </linearGradient>
  </defs>
  
  <!-- Background circle -->
  <circle cx="16" cy="16" r="16" fill="url(#bg)"/>
  
  <!-- Link chain symbol -->
  <g fill="white" stroke="white" stroke-width="1.5" stroke-linecap="round" stroke-linejoin="round">
    <!-- First link -->
    <path d="M13 11a4 4 0 0 1 4 4v1a4 4 0 0 1-4 4H9a4 4 0 0 1-4-4v-1a4 4 0 0 1 4-4h4z" fill="none"/>
    <!-- Second link -->
    <path d="M19 21a4 4 0 0 1-4-4v-1a4 4 0 0 1 4-4h4a4 4 0 0 1 4 4v1a4 4 0 0 1-4 4h-4z" fill="none"/>
    <!-- Connection line -->
    <line x1="13" y1="15" x2="19" y2="17" stroke-width="2"/>
  </g>
</svg>